<?xml version="1.0" encoding="UTF-8" standalone="no"?>
<!-- Created with Inkscape (http://www.inkscape.org/) -->

<svg
   xmlns:dc="http://purl.org/dc/elements/1.1/"
   xmlns:cc="http://creativecommons.org/ns#"
   xmlns:rdf="http://www.w3.org/1999/02/22-rdf-syntax-ns#"
   xmlns:svg="http://www.w3.org/2000/svg"
   xmlns="http://www.w3.org/2000/svg"
   xmlns:sodipodi="http://sodipodi.sourceforge.net/DTD/sodipodi-0.dtd"
   xmlns:inkscape="http://www.inkscape.org/namespaces/inkscape"
   version="1.1"
   id="svg2"
   xml:space="preserve"
   width="207.88"
   height="75.587196"
   viewBox="0 0 207.88 75.587196"
   sodipodi:docname="logo-small2.svg"
   inkscape:version="0.92.3 (2405546, 2018-03-11)"><metadata
     id="metadata8"><rdf:RDF><cc:Work
         rdf:about=""><dc:format>image/svg+xml</dc:format><dc:type
           rdf:resource="http://purl.org/dc/dcmitype/StillImage" /><dc:title></dc:title></cc:Work></rdf:RDF></metadata><defs
     id="defs6"><clipPath
       clipPathUnits="userSpaceOnUse"
       id="clipPath18"><path
         d="M 0,56.69 H 155.91 V 0 H 0 Z"
         id="path16"
         inkscape:connector-curvature="0" /></clipPath></defs><sodipodi:namedview
     pagecolor="#ffffff"
     bordercolor="#666666"
     borderopacity="1"
     objecttolerance="10"
     gridtolerance="10"
     guidetolerance="10"
     inkscape:pageopacity="0"
     inkscape:pageshadow="2"
     inkscape:window-width="1920"
     inkscape:window-height="1062"
     id="namedview4"
     showgrid="false"
     inkscape:zoom="9.1432701"
     inkscape:cx="89.816311"
     inkscape:cy="19.27514"
     inkscape:window-x="0"
     inkscape:window-y="18"
     inkscape:window-maximized="0"
     inkscape:current-layer="g12" /><g
     id="g10"
     inkscape:groupmode="layer"
     inkscape:label="logo-small"
     transform="matrix(1.3333333,0,0,-1.3333333,0,75.5872)"><g
       id="g12"><g
         transform="translate(53.772,14.7783)"
         id="g20"><path
           inkscape:connector-curvature="0"
           id="path22"
           style="fill:#444041;fill-opacity:1;fill-rule:nonzero;stroke:none"
           d="M 0,0 H -4.157 C -5.106,0 -5.841,0.264 -6.361,0.789 -6.88,1.315 -7.14,2.047 -7.14,2.983 v 3.85 c 0,0.949 0.26,1.684 0.779,2.203 0.52,0.52 1.255,0.779 2.204,0.779 h 1.578 c 0.95,0 1.687,-0.259 2.213,-0.779 C 0.16,8.517 0.423,7.782 0.423,6.833 V 4.389 C 0.423,4.157 0.308,4.042 0.077,4.042 h -5.158 c -0.141,0 -0.211,-0.064 -0.211,-0.192 V 3.022 c 0,-0.937 0.468,-1.405 1.404,-1.405 H 0 c 0.231,0 0.347,-0.116 0.347,-0.346 V 0.309 C 0.347,0.104 0.231,0 0,0 m -5.081,5.351 h 3.445 c 0.128,0 0.193,0.064 0.193,0.192 v 1.231 c 0,0.489 -0.11,0.844 -0.328,1.069 -0.218,0.224 -0.57,0.337 -1.058,0.337 H -3.888 C -4.375,8.18 -4.728,8.067 -4.946,7.843 -5.164,7.618 -5.273,7.263 -5.273,6.774 V 5.543 c 0,-0.128 0.064,-0.192 0.192,-0.192 M 4.08,0 H 2.867 C 2.649,0 2.541,0.109 2.541,0.327 v 9.161 c 0,0.218 0.108,0.327 0.326,0.327 H 4.08 c 0.218,0 0.328,-0.109 0.328,-0.327 V 8.796 h 0.076 c 0.372,0.68 1.053,1.019 2.04,1.019 h 0.635 c 1.116,0 1.912,-0.423 2.387,-1.27 0.205,0.411 0.52,0.726 0.943,0.943 0.424,0.218 0.879,0.327 1.366,0.327 h 0.616 c 0.937,0 1.652,-0.259 2.146,-0.779 0.494,-0.519 0.741,-1.254 0.741,-2.203 V 0.327 C 15.358,0.109 15.249,0 15.031,0 h -1.232 c -0.218,0 -0.327,0.109 -0.327,0.327 v 6.429 c 0,0.949 -0.462,1.424 -1.386,1.424 H 11.528 C 10.463,8.18 9.931,7.621 9.931,6.505 V 0.327 C 9.931,0.109 9.815,0 9.584,0 H 8.372 C 8.154,0 8.045,0.109 8.045,0.327 V 6.756 C 8.045,7.705 7.583,8.18 6.659,8.18 H 5.985 C 4.933,8.18 4.408,7.635 4.408,6.544 V 0.327 C 4.408,0.109 4.298,0 4.08,0 m 20.554,0 h -4.156 c -0.95,0 -1.685,0.264 -2.204,0.789 -0.52,0.526 -0.779,1.258 -0.779,2.194 v 3.85 c 0,0.949 0.259,1.684 0.779,2.203 0.519,0.52 1.254,0.779 2.204,0.779 h 1.578 c 0.949,0 1.687,-0.259 2.213,-0.779 0.526,-0.519 0.788,-1.254 0.788,-2.203 V 4.389 c 0,-0.232 -0.114,-0.347 -0.345,-0.347 h -5.158 c -0.141,0 -0.212,-0.064 -0.212,-0.192 V 3.022 c 0,-0.937 0.469,-1.405 1.405,-1.405 h 3.887 c 0.233,0 0.347,-0.116 0.347,-0.346 V 0.309 C 24.981,0.104 24.867,0 24.634,0 m -5.08,5.351 h 3.445 c 0.128,0 0.192,0.064 0.192,0.192 v 1.231 c 0,0.489 -0.109,0.844 -0.327,1.069 C 22.646,8.067 22.293,8.18 21.806,8.18 H 20.747 C 20.259,8.18 19.907,8.067 19.688,7.843 19.47,7.618 19.361,7.263 19.361,6.774 V 5.543 c 0,-0.128 0.064,-0.192 0.193,-0.192 M 28.714,0 h -1.213 c -0.216,0 -0.326,0.109 -0.326,0.327 v 9.161 c 0,0.218 0.11,0.327 0.326,0.327 h 1.213 c 0.218,0 0.328,-0.109 0.328,-0.327 V 8.757 h 0.077 c 0.128,0.321 0.375,0.577 0.74,0.77 0.367,0.193 0.774,0.288 1.224,0.288 h 0.71 c 0.219,0 0.329,-0.109 0.329,-0.327 V 8.487 c 0,-0.243 -0.11,-0.346 -0.329,-0.307 h -1.154 c -1.064,0 -1.597,-0.584 -1.597,-1.751 V 0.327 C 29.042,0.109 28.932,0 28.714,0 m 8.488,0.481 h -0.867 c -0.922,0 -1.631,0.26 -2.126,0.78 -0.495,0.519 -0.741,1.254 -0.741,2.204 v 3.368 c 0,0.949 0.263,1.684 0.79,2.203 0.526,0.52 1.256,0.779 2.193,0.779 h 4.312 c 0.23,0 0.346,-0.109 0.346,-0.327 v -9.526 c 0,-0.937 -0.267,-1.665 -0.799,-2.185 -0.533,-0.519 -1.268,-0.779 -2.204,-0.779 h -3.617 c -0.218,0 -0.328,0.103 -0.328,0.308 v 1.001 c 0,0.217 0.11,0.327 0.328,0.327 h 3.329 c 0.937,0 1.404,0.474 1.404,1.424 v 1.463 h -0.076 c -0.32,-0.693 -0.97,-1.04 -1.944,-1.04 m 2.02,3.272 v 4.234 c 0,0.128 -0.07,0.193 -0.212,0.193 h -2.289 c -0.912,0 -1.366,-0.475 -1.366,-1.424 V 3.561 c 0,-0.95 0.454,-1.424 1.366,-1.424 h 0.923 c 1.053,0 1.578,0.539 1.578,1.616 M 50.462,0 h -4.157 c -0.95,0 -1.683,0.264 -2.204,0.789 -0.518,0.526 -0.779,1.258 -0.779,2.194 v 3.85 c 0,0.949 0.261,1.684 0.779,2.203 0.521,0.52 1.254,0.779 2.204,0.779 h 1.579 c 0.949,0 1.687,-0.259 2.213,-0.779 0.526,-0.519 0.788,-1.254 0.788,-2.203 V 4.389 c 0,-0.232 -0.114,-0.347 -0.346,-0.347 H 45.381 C 45.24,4.042 45.17,3.978 45.17,3.85 V 3.022 c 0,-0.937 0.468,-1.405 1.406,-1.405 h 3.886 c 0.231,0 0.347,-0.116 0.347,-0.346 V 0.309 C 50.809,0.104 50.693,0 50.462,0 m -5.081,5.351 h 3.445 c 0.13,0 0.192,0.064 0.192,0.192 v 1.231 c 0,0.489 -0.108,0.844 -0.326,1.069 -0.219,0.224 -0.57,0.337 -1.058,0.337 H 46.576 C 46.087,8.18 45.734,8.067 45.517,7.843 45.297,7.618 45.188,7.263 45.188,6.774 V 5.543 c 0,-0.128 0.064,-0.192 0.193,-0.192 M 54.542,0 h -1.211 c -0.218,0 -0.329,0.109 -0.329,0.327 v 9.161 c 0,0.218 0.111,0.327 0.329,0.327 h 1.211 c 0.218,0 0.328,-0.109 0.328,-0.327 V 8.796 h 0.077 c 0.308,0.68 0.955,1.019 1.944,1.019 h 0.847 c 0.936,0 1.655,-0.256 2.155,-0.769 0.5,-0.514 0.75,-1.251 0.75,-2.213 V 0.327 C 60.643,0.109 60.528,0 60.296,0 h -1.212 c -0.217,0 -0.328,0.109 -0.328,0.327 v 6.429 c 0,0.949 -0.467,1.424 -1.404,1.424 H 56.447 C 55.396,8.18 54.87,7.635 54.87,6.544 V 0.327 C 54.87,0.109 54.76,0 54.542,0 m 13.626,0 h -2.233 c -0.948,0 -1.684,0.264 -2.202,0.789 -0.52,0.526 -0.779,1.258 -0.779,2.194 v 6.409 c 0,0.95 0.259,1.684 0.779,2.204 0.518,0.519 1.254,0.779 2.202,0.779 h 2.233 c 0.937,0 1.669,-0.26 2.195,-0.779 0.525,-0.52 0.788,-1.254 0.788,-2.204 V 8.468 c 0,-0.231 -0.115,-0.346 -0.346,-0.346 h -1.213 c -0.217,0 -0.326,0.115 -0.326,0.346 v 0.847 c 0,0.95 -0.462,1.424 -1.386,1.424 h -1.674 c -0.924,0 -1.387,-0.474 -1.387,-1.424 V 3.061 c 0,-0.95 0.463,-1.424 1.387,-1.424 h 1.674 c 0.924,0 1.386,0.474 1.386,1.424 v 0.846 c 0,0.231 0.109,0.347 0.326,0.347 h 1.213 c 0.231,0 0.346,-0.116 0.346,-0.347 V 2.983 C 71.151,2.047 70.888,1.315 70.363,0.789 69.837,0.264 69.105,0 68.168,0 M 75.5,12.048 V 0.327 C 75.5,0.109 75.393,0 75.174,0 h -1.212 c -0.219,0 -0.328,0.109 -0.328,0.327 v 11.721 c 0,0.219 0.109,0.327 0.328,0.327 h 1.212 c 0.219,0 0.326,-0.108 0.326,-0.327 M 81.793,0 h -1.21 c -0.232,0 -0.348,0.109 -0.348,0.327 v 10.22 c 0,0.128 -0.064,0.192 -0.193,0.192 h -2.424 c -0.231,0 -0.346,0.11 -0.346,0.327 v 0.982 c 0,0.219 0.115,0.327 0.346,0.327 h 7.141 c 0.23,0 0.346,-0.108 0.346,-0.327 v -0.982 c 0,-0.217 -0.116,-0.327 -0.346,-0.327 h -2.426 c -0.14,0 -0.211,-0.064 -0.211,-0.192 V 0.327 C 82.122,0.109 82.013,0 81.793,0 m 9.066,0 H 89.626 C 89.41,0 89.301,0.109 89.301,0.327 v 4.254 l -3.6,7.447 c -0.051,0.104 -0.051,0.187 0,0.251 0.051,0.064 0.122,0.096 0.213,0.096 h 1.54 c 0.165,0 0.294,-0.108 0.384,-0.327 l 2.368,-5.292 h 0.115 l 2.329,5.292 c 0.076,0.219 0.205,0.327 0.385,0.327 h 1.538 c 0.103,0 0.177,-0.032 0.222,-0.096 0.044,-0.064 0.042,-0.147 -0.01,-0.251 L 91.186,4.581 V 0.327 C 91.186,0.109 91.077,0 90.859,0" /></g><g
         transform="translate(25.0342,47.4048)"
         id="g24"><path
           inkscape:connector-curvature="0"
           id="path26"
           style="fill:#f25c19;fill-opacity:1;fill-rule:nonzero;stroke:none"
           d="m 0,0 c -0.851,0 -1.542,-0.69 -1.542,-1.542 0,-0.523 0.261,-0.986 0.661,-1.264 v -32.43 l -5.451,-7.503 h 2.175 l 4.869,6.702 0.169,0.232 v 0.285 32.714 c 0.4,0.278 0.661,0.741 0.661,1.264 C 1.542,-0.69 0.851,0 0,0" /></g><g
         transform="translate(32.083,50.7979)"
         id="g28"><path
           inkscape:connector-curvature="0"
           id="path30"
           style="fill:#215698;fill-opacity:1;fill-rule:nonzero;stroke:none"
           d="m 0,0 c -0.852,0 -1.542,-0.69 -1.542,-1.542 0,-0.523 0.261,-0.987 0.661,-1.266 v -36.305 -0.085 l 0.021,-0.098 1.452,-6.836 H 2.39 l -1.509,7.104 v 36.22 c 0.4,0.279 0.661,0.743 0.661,1.266 C 1.542,-0.69 0.851,0 0,0" /></g><g
         transform="translate(35.6074,31.2559)"
         id="g32"><path
           inkscape:connector-curvature="0"
           id="path34"
           style="fill:#3a9fdf;fill-opacity:1;fill-rule:nonzero;stroke:none"
           d="m 0,0 c -0.852,0 -1.542,-0.691 -1.542,-1.543 0,-0.523 0.261,-0.987 0.661,-1.266 v -16.562 -0.285 l 0.168,-0.232 4.869,-6.702 h 2.176 l -5.451,7.503 V -2.809 C 1.28,-2.53 1.542,-2.066 1.542,-1.543 1.542,-0.691 0.851,0 0,0" /></g><g
         transform="translate(39.1313,42.9717)"
         id="g36"><path
           inkscape:connector-curvature="0"
           id="path38"
           style="fill:#69b530;fill-opacity:1;fill-rule:nonzero;stroke:none"
           d="m 0,0 c -0.852,0 -1.542,-0.69 -1.542,-1.542 0,-0.523 0.261,-0.987 0.661,-1.266 v -28.057 -0.507 l 0.441,-0.254 11.568,-6.68 h 3.516 l -13.763,7.947 v 27.551 c 0.4,0.279 0.661,0.743 0.661,1.266 C 1.542,-0.69 0.851,0 0,0" /></g><g
         transform="translate(6.8662,4.666)"
         id="g40"><path
           inkscape:connector-curvature="0"
           id="path42"
           style="fill:#fab235;fill-opacity:1;fill-rule:nonzero;stroke:none"
           d="m 0,0 13.763,7.946 v 15.051 c -0.4,0.278 -0.661,0.741 -0.661,1.265 0,0.851 0.69,1.541 1.542,1.541 0.851,0 1.541,-0.69 1.541,-1.541 0,-0.524 -0.261,-0.987 -0.66,-1.265 V 7.44 6.934 L 15.084,6.68 3.515,0 Z" /></g><g
         transform="translate(28.5586,37.0972)"
         id="g44"><path
           inkscape:connector-curvature="0"
           id="path46"
           style="fill:#b62234;fill-opacity:1;fill-rule:nonzero;stroke:none"
           d="m 0,0 c -0.851,0 -1.542,-0.691 -1.542,-1.542 0,-0.524 0.261,-0.987 0.661,-1.266 v -22.52 l -1.51,-7.103 h 1.799 l 1.452,6.836 0.021,0.097 v 0.085 22.605 c 0.4,0.279 0.661,0.742 0.661,1.266 C 1.542,-0.691 0.851,0 0,0" /></g></g></g></svg>