<?xml version="1.0" encoding="UTF-8" standalone="no"?>
<!-- Created with Inkscape (http://www.inkscape.org/) -->

<svg
   xmlns:dc="http://purl.org/dc/elements/1.1/"
   xmlns:cc="http://creativecommons.org/ns#"
   xmlns:rdf="http://www.w3.org/1999/02/22-rdf-syntax-ns#"
   xmlns:svg="http://www.w3.org/2000/svg"
   xmlns="http://www.w3.org/2000/svg"
   xmlns:sodipodi="http://sodipodi.sourceforge.net/DTD/sodipodi-0.dtd"
   xmlns:inkscape="http://www.inkscape.org/namespaces/inkscape"
   version="1.1"
   id="svg2"
   xml:space="preserve"
   width="62.053299"
   height="61.509598"
   viewBox="0 0 62.053297 61.509597"
   sodipodi:docname="icon.svg"
   inkscape:version="0.92.3 (2405546, 2018-03-11)"><metadata
     id="metadata8"><rdf:RDF><cc:Work
         rdf:about=""><dc:format>image/svg+xml</dc:format><dc:type
           rdf:resource="http://purl.org/dc/dcmitype/StillImage" /><dc:title /></cc:Work></rdf:RDF></metadata><defs
     id="defs6"><clipPath
       clipPathUnits="userSpaceOnUse"
       id="clipPath18"><path
         d="M 0,56.69 H 155.91 V 0 H 0 Z"
         id="path16"
         inkscape:connector-curvature="0" /></clipPath></defs><sodipodi:namedview
     pagecolor="#ffffff"
     bordercolor="#666666"
     borderopacity="1"
     objecttolerance="10"
     gridtolerance="10"
     guidetolerance="10"
     inkscape:pageopacity="0"
     inkscape:pageshadow="2"
     inkscape:window-width="1920"
     inkscape:window-height="1062"
     id="namedview4"
     showgrid="false"
     inkscape:zoom="18.28654"
     inkscape:cx="45.410628"
     inkscape:cy="23.794279"
     inkscape:window-x="0"
     inkscape:window-y="18"
     inkscape:window-maximized="0"
     inkscape:current-layer="g12" /><g
     id="g10"
     inkscape:groupmode="layer"
     inkscape:label="logo-small"
     transform="matrix(1.3333333,0,0,-1.3333333,-9.1549331,67.730532)"><g
       id="g12"><g
         transform="translate(25.0342,47.4048)"
         id="g24"><path
           inkscape:connector-curvature="0"
           id="path26"
           style="fill:#f25c19;fill-opacity:1;fill-rule:nonzero;stroke:none"
           d="m 0,0 c -0.851,0 -1.542,-0.69 -1.542,-1.542 0,-0.523 0.261,-0.986 0.661,-1.264 v -32.43 l -5.451,-7.503 h 2.175 l 4.869,6.702 0.169,0.232 v 0.285 32.714 c 0.4,0.278 0.661,0.741 0.661,1.264 C 1.542,-0.69 0.851,0 0,0" /></g><g
         transform="translate(32.083,50.7979)"
         id="g28"><path
           inkscape:connector-curvature="0"
           id="path30"
           style="fill:#215698;fill-opacity:1;fill-rule:nonzero;stroke:none"
           d="m 0,0 c -0.852,0 -1.542,-0.69 -1.542,-1.542 0,-0.523 0.261,-0.987 0.661,-1.266 v -36.305 -0.085 l 0.021,-0.098 1.452,-6.836 H 2.39 l -1.509,7.104 v 36.22 c 0.4,0.279 0.661,0.743 0.661,1.266 C 1.542,-0.69 0.851,0 0,0" /></g><g
         transform="translate(35.6074,31.2559)"
         id="g32"><path
           inkscape:connector-curvature="0"
           id="path34"
           style="fill:#3a9fdf;fill-opacity:1;fill-rule:nonzero;stroke:none"
           d="m 0,0 c -0.852,0 -1.542,-0.691 -1.542,-1.543 0,-0.523 0.261,-0.987 0.661,-1.266 v -16.562 -0.285 l 0.168,-0.232 4.869,-6.702 h 2.176 l -5.451,7.503 V -2.809 C 1.28,-2.53 1.542,-2.066 1.542,-1.543 1.542,-0.691 0.851,0 0,0" /></g><g
         transform="matrix(0.97719486,0,0,1,39.096134,42.9717)"
         id="g36"><path
           inkscape:connector-curvature="0"
           id="path38"
           style="fill:#69b530;fill-opacity:1;fill-rule:nonzero;stroke:none"
           d="m 0,0 c -0.852,0 -1.542,-0.69 -1.542,-1.542 0,-0.523 0.261,-0.987 0.661,-1.266 v -28.057 -0.507 l 0.441,-0.254 11.568,-6.68 h 3.516 l -13.763,7.947 v 27.551 c 0.4,0.279 0.661,0.743 0.661,1.266 C 1.542,-0.69 0.851,0 0,0" /></g><g
         transform="translate(6.8662,4.666)"
         id="g40"><path
           inkscape:connector-curvature="0"
           id="path42"
           style="fill:#fab235;fill-opacity:1;fill-rule:nonzero;stroke:none"
           d="m 0,0 13.763,7.946 v 15.051 c -0.4,0.278 -0.661,0.741 -0.661,1.265 0,0.851 0.69,1.541 1.542,1.541 0.851,0 1.541,-0.69 1.541,-1.541 0,-0.524 -0.261,-0.987 -0.66,-1.265 V 7.44 6.934 L 15.084,6.68 3.515,0 Z" /></g><g
         transform="translate(28.5586,37.0972)"
         id="g44"><path
           inkscape:connector-curvature="0"
           id="path46"
           style="fill:#b62234;fill-opacity:1;fill-rule:nonzero;stroke:none"
           d="m 0,0 c -0.851,0 -1.542,-0.691 -1.542,-1.542 0,-0.524 0.261,-0.987 0.661,-1.266 v -22.52 l -1.51,-7.103 h 1.799 l 1.452,6.836 0.021,0.097 v 0.085 22.605 c 0.4,0.279 0.661,0.742 0.661,1.266 C 1.542,-0.691 0.851,0 0,0" /></g></g></g></svg>